<?xml version="1.0" encoding="utf-8"?>
<!-- Generator: Adobe Illustrator 23.0.1, SVG Export Plug-In . SVG Version: 6.00 Build 0)  -->
<svg version="1.1" id="Layer_1" xmlns="http://www.w3.org/2000/svg" xmlns:xlink="http://www.w3.org/1999/xlink" x="0px" y="0px"
	 viewBox="0 0 58.9 48.8" style="enable-background:new 0 0 58.9 48.8;" xml:space="preserve">
<style type="text/css">
	.st0{fill:url(#SVGID_1_);}
	.st1{fill:url(#SVGID_2_);}
	.st2{fill:url(#SVGID_3_);}
	.st3{fill:url(#SVGID_4_);}
	.st4{fill:url(#SVGID_5_);}
	.st5{fill:url(#SVGID_6_);}
	.st6{fill:url(#SVGID_7_);}
	.st7{fill:url(#SVGID_8_);}
</style>
<title>B</title>
<desc>Created with Sketch.</desc>
<g>
	<g>
		<linearGradient id="SVGID_1_" gradientUnits="userSpaceOnUse" x1="41.5866" y1="18.6198" x2="29.7608" y2="18.6198">
			<stop  offset="0" style="stop-color:#262261"/>
			<stop  offset="1" style="stop-color:#EC297B"/>
		</linearGradient>
		<polygon class="st0" points="29.5,12.7 29.5,36.9 41.8,0.3 		"/>
		<linearGradient id="SVGID_2_" gradientUnits="userSpaceOnUse" x1="50.5227" y1="18.6198" x2="33.8912" y2="18.6198">
			<stop  offset="0" style="stop-color:#262261"/>
			<stop  offset="1" style="stop-color:#EC297B"/>
		</linearGradient>
		<polygon class="st1" points="41.8,0.3 29.5,36.9 53.9,12.4 		"/>
	</g>
	<g>
		<linearGradient id="SVGID_3_" gradientUnits="userSpaceOnUse" x1="17.1137" y1="18.6198" x2="29.4685" y2="18.6198">
			<stop  offset="0" style="stop-color:#262261"/>
			<stop  offset="1" style="stop-color:#EC297B"/>
		</linearGradient>
		<polygon class="st2" points="17.1,0.3 29.5,36.9 29.5,12.7 		"/>
		<linearGradient id="SVGID_4_" gradientUnits="userSpaceOnUse" x1="8.3578" y1="18.6198" x2="25.1755" y2="18.6198">
			<stop  offset="0" style="stop-color:#262261"/>
			<stop  offset="1" style="stop-color:#EC297B"/>
		</linearGradient>
		<polygon class="st3" points="17.1,0.3 5,12.4 17.4,24.8 29.5,36.9 		"/>
	</g>
	<g>
		<linearGradient id="SVGID_5_" gradientUnits="userSpaceOnUse" x1="2.748" y1="57.7011" x2="13.1734" y2="-1.7735">
			<stop  offset="0" style="stop-color:#262261"/>
			<stop  offset="1" style="stop-color:#EC297B"/>
		</linearGradient>
		<path class="st4" d="M0,17.5v31.3c9.5,0,17.1-7.7,17.1-17.1V0.3C7.7,0.3,0,8,0,17.5z"/>
		<linearGradient id="SVGID_6_" gradientUnits="userSpaceOnUse" x1="8.3073" y1="62.0218" x2="8.3073" y2="29.2592">
			<stop  offset="0" style="stop-color:#262261"/>
			<stop  offset="1" style="stop-color:#EC297B"/>
		</linearGradient>
		<path class="st5" d="M8.6,2.6C3.4,5.6,0,11.1,0,17.5v31.3c0.2,0,0.3,0,0.5,0h0.1c4.5-0.3,8-4,8-8.5V8.9c0-2.4,1-4.5,2.5-6
			c1.4-1.4,3.4-2.4,5.6-2.5C13.7,0.4,10.9,1.2,8.6,2.6z"/>
	</g>
	<linearGradient id="SVGID_7_" gradientUnits="userSpaceOnUse" x1="50.3872" y1="52.4899" x2="50.3872" y2="-2.9466">
		<stop  offset="0" style="stop-color:#262261"/>
		<stop  offset="1" style="stop-color:#EC297B"/>
	</linearGradient>
	<path class="st6" d="M41.8,0.3L41.8,0.3l0,31.3c0,9.5,7.7,17.1,17.1,17.1h0V17.5C58.9,8,51.3,0.3,41.8,0.3z"/>
	<linearGradient id="SVGID_8_" gradientUnits="userSpaceOnUse" x1="50.6372" y1="66.0927" x2="50.6372" y2="27.4292">
		<stop  offset="0" style="stop-color:#262261"/>
		<stop  offset="1" style="stop-color:#EC297B"/>
	</linearGradient>
	<path class="st7" d="M50.4,2.6c-2.4-1.4-5.1-2.2-8.1-2.3c2.2,0.1,4.1,1.1,5.6,2.5c1.5,1.5,2.5,3.7,2.5,6v31.3c0,4.5,3.5,8.3,8,8.5
		h0.1c0.2,0,0.3,0,0.5,0V17.5C58.9,11.1,55.5,5.6,50.4,2.6z"/>
</g>
</svg>
